nRows=32
nColumns=19
inDegrees=yes
endheader
time	ground_force_vx	ground_force_vy	ground_force_vz	ground_force_px	ground_force_py	ground_force_pz	1_ground_force_vx	1_ground_force_vy	1_ground_force_vz	1_ground_force_px	1_ground_force_py	1_ground_force_pz	ground_torque_x	ground_torque_y	ground_torque_z	1_ground_torque_x	1_ground_torque_y	1_ground_torque_z
9.942	-0.12800164179176	0.102833887096448	0.0257120792024279	0.300000012	0	0.609999999	-0.0715903693586695	-0.0848534337466722	0.0155974179264068	0.300000012	0	0.2050000005	0.649942	0.043281	-0.649942	-0	0.029575	0
9.943	-0.127622622696242	0.104105849468391	0.0268621646846713	0.300000012	0	0.609999999	-0.0726942002546242	-0.0830126026742191	0.016224504540481	0.300000012	0	0.2050000005	-10.79338	0.043281	10.79338	-0	0.033182	0
9.944	-0.12725800301207	0.105177559385754	0.0279311765736226	0.300000012	0	0.609999999	-0.0736094341141471	-0.0811130900938692	0.0167550186741375	0.300000012	0	0.2050000005	-0.009725	0.043281	0.009725	-0	0.031018	0
9.945	-0.126903745728161	0.106040833443629	0.0289054482090715	0.300000012	0	0.609999999	-0.0743098158848692	-0.0791986527214286	0.0171754393603444	0.300000012	0	0.2050000005	-0.048351	0.041838	0.048351	-0	0.034625	0
9.946	-0.126554808471799	0.106691284338491	0.0297743527421935	0.300000012	0	0.609999999	-0.0747779574830504	-0.0773164845828652	0.0174717996200366	0.300000012	0	0.2050000005	1.618459	0.033903	-1.618459	-0	0.036789	0
9.947	-0.126204948649992	0.107128720873553	0.0305303720046554	0.300000012	0	0.609999999	-0.0750063652114089	-0.0755159530052555	0.0176308586479319	0.300000012	0	0.2050000005	0.068583	0.033903	-0.068583	-0	0.038953	0
9.948	-0.1258466109507	0.107357529535049	0.0311691835652644	0.300000012	0	0.609999999	-0.0749979692648487	-0.0738471948485313	0.0176413965892947	0.300000012	0	0.2050000005	0.058197	0.038231	-0.058197	-0	0.036067	0
9.949	-0.125470932693662	0.107386990624836	0.0316897657958758	0.300000012	0	0.609999999	-0.0747661142818565	-0.0723595779831013	0.0174954988016935	0.300000012	0	0.2050000005	-0.503131	0.04833	0.503131	-0	0.030297	0
9.95	-0.12506789441585	0.107231479122853	0.0320945067437196	0.300000012	0	0.609999999	-0.0743340013993956	-0.0711000428917335	0.0171896996453169	0.300000012	0	0.2050000005	0.15652	0.041838	-0.15652	-0	0.028133	0
9.951	-0.124626631623839	0.106910502426147	0.0323892898962869	0.300000012	0	0.609999999	-0.0737336047094563	-0.0701113530648239	0.0167258709194	0.300000012	0	0.2050000005	0.427276	0.044002	-0.427276	-0	0.032461	0
9.952	-0.124135909502666	0.106448533583487	0.0325835201290801	0.300000012	0	0.609999999	-0.0730041165208574	-0.0694302997450723	0.0161117644645237	0.300000012	0	0.2050000005	0.183707	0.051937	-0.183707	-0	0.028854	0
9.953	-0.123584746406467	0.105874609273571	0.0326900476604458	0.300000012	0	0.609999999	-0.0721900044195744	-0.0690859252804402	0.0153611493841925	0.300000012	0	0.2050000005	0.225651	0.049773	-0.225651	-0	0.027411	0
9.954	-0.122963155300664	0.105221676117691	0.0327249480218879	0.300000012	0	0.609999999	-0.0713387868554356	-0.0690978478208977	0.0144935191017443	0.300000012	0	0.2050000005	-0.017185	0.054101	0.017185	-0	0.034625	0
9.955	-0.122262956431449	0.104525686224705	0.0327071229056499	0.300000012	0	0.609999999	-0.070498651178266	-0.0694747854102254	0.013533379466397	0.300000012	0	0.2050000005	-0.011897	0.046888	0.011897	-0	0.031018	0
9.956	-0.121478601131385	0.103824461891145	0.0326577004926036	0.300000012	0	0.609999999	-0.0697160474997973	-0.0702133862345767	0.012509163771245	0.300000012	0	0.2050000005	-0.043876	0.04256	0.043876	-0	0.020198	0
9.957	-0.120607937766565	0.103156368373018	0.0325992334512137	0.300000012	0	0.609999999	-0.0690333929209632	-0.0712974708175986	0.011451851273043	0.300000012	0	0.2050000005	-0.061328	0.050495	0.061328	-0	0.024526	0
9.958	-0.119652848187133	0.102558850576257	0.0325547158617021	0.300000012	0	0.609999999	-0.0684870137050754	-0.0726977795697346	0.0103933902217917	0.300000012	0	0.2050000005	-0.020914	0.049052	0.020914	-0	0.033903	0
9.959	-0.11861968787419	0.102066902451532	0.0325464635719359	0.300000012	0	0.609999999	-0.0681054386890725	-0.0743722955518138	0.00936504255952128	0.300000012	0	0.2050000005	0.414797	0.047609	-0.414797	-0	0.028854	0
9.96	-0.117519475492404	0.101711545441036	0.0325949224504737	0.300000012	0	0.609999999	-0.0679081367920736	-0.0762671798391512	0.00839577396671551	0.300000012	0	0.2050000005	-0.355284	0.041838	0.355284	-0	0.027411	0
9.961	-0.116367796759257	0.101518394023841	0.0327174827381947	0.300000012	0	0.609999999	-0.0679047661809067	-0.0783183191459591	0.00751080912670582	0.300000012	0	0.2050000005	-0.032127	0.041838	0.032127	-0	0.028854	0
9.962	-0.115184411338513	0.101506382800603	0.0329273833910537	0.300000012	0	0.609999999	-0.0680949736421813	-0.0804534465535361	0.00673045802440656	0.300000012	0	0.2050000005	0.157179	0.038232	-0.157179	-0	0.018034	0
9.963	-0.113992577058511	0.101686722088145	0.033232787494537	0.300000012	0	0.609999999	-0.0684687510134475	-0.0825947599061033	0.00606929583226862	0.300000012	0	0.2050000005	1.272914	0.036068	-1.272914	-0	0.023805	0
9.964	-0.112818130125514	0.102062139511885	0.0336360993830023	0.300000012	0	0.609999999	-0.0690073222445399	-0.0846619310651883	0.00553574858113982	0.300000012	0	0.2050000005	-0.011379	0.041838	0.011379	-0	0.020198	0
9.965	-0.111688380366465	0.102626455219443	0.0341335779204684	0.300000012	0	0.609999999	-0.0696845013016937	-0.0865753737508148	0.00513210245441717	0.300000012	0	0.2050000005	0.354644	0.040396	-0.354644	-0	0.025969	0
9.966	-0.110630894716658	0.103364528959682	0.034715280939313	0.300000012	0	0.609999999	-0.0704684298571685	-0.0882596183016959	0.00485491982336	0.300000012	0	0.2050000005	-0.518264	0.040396	0.518264	-0	0.024526	0
9.967	-0.109672248856883	0.104252608217393	0.0353653554436073	0.300000012	0	0.609999999	-0.0713235773392945	-0.0896466284839672	0.00469581364133703	0.300000012	0	0.2050000005	0.015464	0.034625	-0.015464	-0	0.023083	0
9.968	-0.108836825826761	0.105259096703207	0.0360626685514407	0.300000012	0	0.609999999	-0.0722128675380499	-0.0906788892072042	0.00464250641287981	0.300000012	0	0.2050000005	-1.018838	0.036789	1.018838	-0	0.028854	0
9.969	-0.108145732390714	0.106345749862109	0.0367817560200587	0.300000012	0	0.609999999	-0.0730997882617758	-0.0913120961489346	0.0046800823503581	0.300000012	0	0.2050000005	51.40181	0.033182	-51.40181	-0	0.028133	0
9.97	-0.107615890610124	0.107469286537411	0.0374940485218669	0.300000012	0	0.609999999	-0.0739503450979734	-0.0915172906567547	0.00479233193956582	0.300000012	0	0.2050000005	3.428859	0.03751	-3.428859	-0	0.031739	0
9.971	-0.107259345682535	0.108583381966439	0.0381693202635238	0.300000012	0	0.609999999	-0.0747347371053357	-0.0912823072986391	0.00496308641077134	0.300000012	0	0.2050000005	7.999744	0.033903	-7.999744	-0	0.03751	0
9.972	-0.10708281381606	0.109640976969154	0.0387772899658368	0.300000012	0	0.609999999	-0.0754286594943145	-0.0906124373152097	0.00517744465195197	0.300000012	0	0.2050000005	-0.06736	0.041838	0.06736	-0	0.031018	0
9.973	-0.10708747740338	0.110596803939044	0.0392892911888743	0.300000012	0	0.609999999	-0.0760141728629525	-0.0895302575356075	0.00542280615397688	0.300000012	0	0.2050000005	0.06073	0.051937	-0.06073	-0	0.029575	0
